<?xml version="1.0" encoding="UTF-8"?>
<svg
    xmlns="http://www.w3.org/2000/svg"
    viewBox="0 0 600 600"
    width="600"
    height="600"
    aria-hidden="true"
>
    <defs>
        <linearGradient id="goldGradient" x1="0%" y1="0%" x2="100%" y2="100%">
            <stop offset="0%" stop-color="#f7e7a1"/>
            <stop offset="50%" stop-color="#d4af37"/>
            <stop offset="100%" stop-color="#9c7c19"/>
        </linearGradient>
    </defs>

    <path
        d="
        M 320 80
        C 240 100, 210 170, 260 220
        C 310 270, 280 330, 230 360
        C 180 390, 170 440, 210 470
        C 250 500, 320 480, 350 440
        C 380 400, 420 380, 460 400
        C 500 420, 520 390, 500 360
        C 480 330, 430 320, 400 290
        C 370 260, 380 210, 420 190
        C 460 170, 450 120, 410 100
        C 380 80, 350 70, 320 80
        Z
        "
        fill="none"
        stroke="url(#goldGradient)"
        stroke-width="6"
        stroke-linecap="round"
        stroke-linejoin="round"
    />

    <!-- olho -->
    <circle cx="335" cy="145" r="4" fill="#d4af37"/>

    <!-- bigode oriental -->
    <path
        d="M 350 160 C 380 150, 420 155, 450 145"
        fill="none"
        stroke="url(#goldGradient)"
        stroke-width="3"
        stroke-linecap="round"
    />

    <path
        d="M 350 165 C 380 175, 420 170, 450 180"
        fill="none"
        stroke="url(#goldGradient)"
        stroke-width="3"
        stroke-linecap="round"
    />
</svg>
